<svg xmlns="http://www.w3.org/2000/svg" version="1.1" xmlns:xlink="http://www.w3.org/1999/xlink" xmlns:svgjs="http://svgjs.dev/svgjs" width="1500" height="1500" viewBox="0 0 1500 1500"><rect width="1500" height="1500" fill="#000000"></rect><g transform="matrix(0.6666666666666666,0,0,0.6666666666666666,248.7765957446809,423.4852702165987)"><svg viewBox="0 0 376 245" data-background-color="#0093fb" preserveAspectRatio="xMidYMid meet" height="977" width="1500" xmlns="http://www.w3.org/2000/svg" xmlns:xlink="http://www.w3.org/1999/xlink"><g id="tight-bounds" transform="matrix(1,0,0,1,0.46023999999999887,0.31917020000000207)"><svg viewBox="0 0 375.07953 244.36182960000002" height="244.36182960000002" width="375.07953"><g><svg></svg></g><g><svg viewBox="0 0 375.07953 244.36182960000002" height="244.36182960000002" width="375.07953"><g transform="matrix(1,0,0,1,-10.22024,-2.838169999999991)"><path d="M10.22 244.362v-241.524h375.08v241.524h-12.511l0-5.608h6.903v-230.308h-363.864v230.308h20.66l0 5.608z" fill="#ffffff" fill-rule="nonzero" stroke="none" stroke-width="1" stroke-linecap="butt" stroke-linejoin="miter" stroke-miterlimit="10" stroke-dasharray="" stroke-dashoffset="0" font-family="none" font-weight="none" font-size="none" text-anchor="none" style="mix-blend-mode: normal" data-fill-palette-color="tertiary"></path><g><path transform="translate(51.75857,246.92285) scale(0.43992,0.43992)" d="M15.25 0.6v0c-4 0-6.953-1.03-8.86-3.09-1.907-2.06-2.86-5.057-2.86-8.99v0-20.47h4.15v20.57c0 2.733 0.597 4.823 1.79 6.27 1.207 1.44 3.133 2.16 5.78 2.16v0c2.667 0 4.597-0.72 5.79-2.16 1.193-1.447 1.79-3.537 1.79-6.27v0-20.57h4.15v20.47c0 3.933-0.95 6.93-2.85 8.99-1.9 2.06-4.86 3.09-8.88 3.09zM54.17-15.63v15.63h-4.04v-15.18c0-1.313-0.18-2.443-0.54-3.39-0.36-0.953-0.943-1.693-1.75-2.22-0.807-0.527-1.913-0.79-3.32-0.79v0c-1.28 0-2.39 0.243-3.33 0.73-0.947 0.48-1.71 1.133-2.29 1.96-0.587 0.827-0.997 1.767-1.23 2.82v0l-0.72-2.88h0.88c0.267-1.1 0.733-2.103 1.4-3.01 0.667-0.913 1.56-1.64 2.68-2.18 1.127-0.54 2.507-0.81 4.14-0.81v0c1.933 0 3.497 0.367 4.69 1.1 1.193 0.733 2.063 1.787 2.61 3.16 0.547 1.373 0.82 3.06 0.82 5.06zM37.85-18.32v18.32h-4.05v-24.4h4.05l-0.18 5.85zM64.6-33.13v33.13h-4.02v-33.13zM81.03 0.63v0c-3.5 0-6.157-0.947-7.97-2.84-1.807-1.893-2.71-4.617-2.71-8.17v0-3.72c0-3.533 0.91-6.243 2.73-8.13 1.813-1.88 4.463-2.82 7.95-2.82v0c3.5 0 6.153 0.94 7.96 2.82 1.807 1.887 2.71 4.597 2.71 8.13v0 3.72c0 3.553-0.903 6.277-2.71 8.17-1.807 1.893-4.46 2.84-7.96 2.84zM81.03-2.68v0c2.167 0 3.81-0.64 4.93-1.92 1.127-1.287 1.69-3.137 1.69-5.55v0-4.18c0-2.4-0.563-4.237-1.69-5.51-1.12-1.273-2.763-1.91-4.93-1.91v0c-2.153 0-3.797 0.637-4.93 1.91-1.133 1.273-1.7 3.11-1.7 5.51v0 4.18c0 2.413 0.567 4.263 1.7 5.55 1.133 1.28 2.777 1.92 4.93 1.92zM106.73 0.55v0c-3.5 0-6.107-0.947-7.82-2.84-1.707-1.893-2.56-4.573-2.56-8.04v0-3.8c0-3.48 0.86-6.157 2.58-8.03 1.713-1.88 4.313-2.82 7.8-2.82v0c1.033 0 1.973 0.097 2.82 0.29 0.853 0.193 1.617 0.443 2.29 0.75 0.673 0.307 1.243 0.627 1.71 0.96v0l0.35 3.53c-0.78-0.6-1.71-1.11-2.79-1.53-1.073-0.413-2.333-0.62-3.78-0.62v0c-2.333 0-4.073 0.647-5.22 1.94-1.14 1.287-1.71 3.163-1.71 5.63v0 3.6c0 2.42 0.57 4.28 1.71 5.58 1.147 1.3 2.887 1.95 5.22 1.95v0c1.5 0 2.793-0.21 3.88-0.63 1.093-0.413 2.067-0.92 2.92-1.52v0l-0.38 3.57c-0.733 0.5-1.69 0.963-2.87 1.39-1.187 0.427-2.57 0.64-4.15 0.64zM128.2-13.6l11.53 13.6h-4.85l-9.65-11.38h-2.58v-3.15h2.58l9.25-9.87h4.8l-11.08 11.77zM123.05-33.13v33.13h-4.02v-33.13zM163.25 0.5v0c-1.88 0-3.397-0.283-4.55-0.85-1.147-0.567-1.98-1.427-2.5-2.58-0.513-1.147-0.77-2.58-0.77-4.3v0-15.4h4v14.93c0 1.6 0.367 2.78 1.1 3.54 0.733 0.753 1.967 1.13 3.7 1.13v0c0.98 0 1.923-0.107 2.83-0.32 0.913-0.22 1.77-0.53 2.57-0.93v0l-0.38 3.48c-0.78 0.4-1.697 0.717-2.75 0.95-1.047 0.233-2.13 0.35-3.25 0.35zM169.38-24.05l-0.38 3.25h-17.57v-3.25zM159.5-31.03l-0.17 7.38h-3.88l-0.02-6.85zM194.53-15.63v15.63h-4.05v-15.18c0-1.313-0.18-2.443-0.54-3.39-0.36-0.953-0.943-1.693-1.75-2.22-0.807-0.527-1.91-0.79-3.31-0.79v0c-1.287 0-2.397 0.243-3.33 0.73-0.933 0.48-1.687 1.133-2.26 1.96-0.573 0.827-0.977 1.767-1.21 2.82v0l-0.9-2.88h1.05c0.247-1.1 0.703-2.103 1.37-3.01 0.667-0.913 1.563-1.64 2.69-2.18 1.127-0.54 2.497-0.81 4.11-0.81v0c1.933 0 3.497 0.367 4.69 1.1 1.193 0.733 2.063 1.787 2.61 3.16 0.553 1.373 0.83 3.06 0.83 5.06zM178.2-17.85v17.85h-4.05v-33.13h4.03v7.95l-0.13 7zM211.05 0.55v0c-3.713 0-6.513-0.91-8.4-2.73-1.88-1.813-2.82-4.413-2.82-7.8v0-4.35c0-3.433 0.873-6.077 2.62-7.93 1.753-1.86 4.313-2.79 7.68-2.79v0c2.267 0 4.157 0.42 5.67 1.26 1.52 0.84 2.663 2.037 3.43 3.59 0.767 1.547 1.15 3.397 1.15 5.55v0 0.9c0 0.533-0.023 1.067-0.07 1.6-0.04 0.533-0.093 1.057-0.16 1.57v0h-3.72c0.033-0.8 0.053-1.557 0.06-2.27 0.007-0.72 0.01-1.38 0.01-1.98v0c0-1.48-0.237-2.733-0.71-3.76-0.473-1.027-1.183-1.81-2.13-2.35-0.94-0.54-2.117-0.81-3.53-0.81v0c-2.1 0-3.677 0.607-4.73 1.82-1.047 1.22-1.57 2.963-1.57 5.23v0 2.32l0.02 0.5v2.33c0 1.013 0.15 1.93 0.45 2.75 0.3 0.813 0.77 1.517 1.41 2.11 0.647 0.593 1.463 1.043 2.45 1.35 0.993 0.307 2.173 0.46 3.54 0.46v0c1.587 0 3.063-0.207 4.43-0.62 1.367-0.42 2.65-0.987 3.85-1.7v0l-0.38 3.5c-1.08 0.68-2.337 1.227-3.77 1.64-1.433 0.407-3.027 0.61-4.78 0.61zM219.3-13.63v3.05h-17.35v-3.05zM251.58-18.38l-3.65 18.38h-6.6l-6.6-31.95h4.25l4.65 23.87 0.87 4.6h0.45l0.85-4.6 4.68-23.05h6.12l4.68 23.05 0.85 4.6h0.45l0.9-4.6 4.65-23.87h4.2l-6.58 31.95h-6.55l-3.7-18.38-1.75-9.32h-0.4zM286.98 0.63v0c-3.5 0-6.157-0.947-7.97-2.84-1.807-1.893-2.71-4.617-2.71-8.17v0-3.72c0-3.533 0.91-6.243 2.73-8.13 1.813-1.88 4.463-2.82 7.95-2.82v0c3.5 0 6.153 0.94 7.96 2.82 1.807 1.887 2.71 4.597 2.71 8.13v0 3.72c0 3.553-0.903 6.277-2.71 8.17-1.807 1.893-4.46 2.84-7.96 2.84zM286.98-2.68v0c2.167 0 3.81-0.64 4.93-1.92 1.127-1.287 1.69-3.137 1.69-5.55v0-4.18c0-2.4-0.563-4.237-1.69-5.51-1.12-1.273-2.763-1.91-4.93-1.91v0c-2.153 0-3.797 0.637-4.93 1.91-1.133 1.273-1.7 3.11-1.7 5.51v0 4.18c0 2.413 0.567 4.263 1.7 5.55 1.133 1.28 2.777 1.92 4.93 1.92zM307.13-14.93v0l-0.93-3.12 1-0.05c0.533-2.067 1.45-3.697 2.75-4.89 1.3-1.193 3.027-1.79 5.18-1.79v0c0.533 0 1.01 0.043 1.43 0.13 0.427 0.08 0.807 0.18 1.14 0.3v0l0.25 3.92c-0.413-0.133-0.877-0.24-1.39-0.32-0.507-0.087-1.067-0.13-1.68-0.13v0c-1.833 0-3.43 0.51-4.79 1.53-1.36 1.02-2.347 2.493-2.96 4.42zM307.33-16.9v16.9h-4.05v-24.4h3.95l-0.2 7.2zM326.07-33.13v33.13h-4.02v-33.13zM340.85 0.53v0c-2.933 0-5.167-0.91-6.7-2.73-1.533-1.82-2.3-4.47-2.3-7.95v0-4.03c0-3.5 0.777-6.17 2.33-8.01 1.547-1.84 3.827-2.76 6.84-2.76v0c1.5 0 2.803 0.253 3.91 0.76 1.093 0.507 1.983 1.22 2.67 2.14 0.687 0.913 1.147 1.997 1.38 3.25v0h1.32l-1.2 3.72c-0.053-1.433-0.373-2.637-0.96-3.61-0.593-0.973-1.393-1.71-2.4-2.21-1.007-0.5-2.163-0.75-3.47-0.75v0c-2.06 0-3.637 0.6-4.73 1.8-1.093 1.2-1.64 2.967-1.64 5.3v0 4.65c0 2.3 0.547 4.05 1.64 5.25 1.093 1.2 2.67 1.8 4.73 1.8v0c1.24 0 2.333-0.237 3.28-0.71 0.953-0.48 1.74-1.14 2.36-1.98 0.627-0.84 1.057-1.793 1.29-2.86v0l1 2.9h-1.2c-0.233 1.1-0.68 2.107-1.34 3.02-0.653 0.92-1.537 1.65-2.65 2.19-1.107 0.547-2.493 0.82-4.16 0.82zM353.05-33.13v33.13h-4.05l0.18-5.9-0.08-1.3v-10.2l0.03-0.85-0.11-6.93v-7.95zM384.73-17.35l-4.13 17.35h-6.22l-6-24.4h4.17l4.8 21.45h0.48l5-20.8h5.72l5 20.8h0.45l4.85-21.45h4.15l-6 24.4h-6.2l-4.12-17.35-0.8-3.48h-0.38zM411.83-24.4v24.4h-4.05v-24.4zM409.8-28.4v0c-0.833 0-1.453-0.22-1.86-0.66-0.407-0.447-0.61-1.053-0.61-1.82v0-0.12c0-0.787 0.203-1.397 0.61-1.83 0.407-0.433 1.027-0.65 1.86-0.65v0c0.833 0 1.46 0.217 1.88 0.65 0.413 0.433 0.62 1.043 0.62 1.83v0 0.12c0 0.787-0.207 1.397-0.62 1.83-0.42 0.433-1.047 0.65-1.88 0.65zM427.4 0.5v0c-1.88 0-3.397-0.283-4.55-0.85-1.147-0.567-1.98-1.427-2.5-2.58-0.513-1.147-0.77-2.58-0.77-4.3v0-15.4h4v14.93c0 1.6 0.367 2.78 1.1 3.54 0.733 0.753 1.967 1.13 3.7 1.13v0c0.98 0 1.923-0.107 2.83-0.32 0.913-0.22 1.77-0.53 2.57-0.93v0l-0.38 3.48c-0.78 0.4-1.697 0.717-2.75 0.95-1.047 0.233-2.13 0.35-3.25 0.35zM433.53-24.05l-0.38 3.25h-17.57v-3.25zM423.65-31.03l-0.17 7.38h-3.88l-0.02-6.85zM458.68-15.63v15.63h-4.05v-15.18c0-1.313-0.18-2.443-0.54-3.39-0.36-0.953-0.943-1.693-1.75-2.22-0.807-0.527-1.913-0.79-3.32-0.79v0c-1.28 0-2.387 0.243-3.32 0.73-0.933 0.48-1.687 1.133-2.26 1.96-0.58 0.827-0.983 1.767-1.21 2.82v0l-0.91-2.88h1.06c0.247-1.1 0.703-2.103 1.37-3.01 0.667-0.913 1.563-1.64 2.69-2.18 1.127-0.54 2.497-0.81 4.11-0.81v0c1.933 0 3.497 0.367 4.69 1.1 1.187 0.733 2.057 1.787 2.61 3.16 0.553 1.373 0.83 3.06 0.83 5.06zM442.35-17.85v17.85h-4.05v-33.13h4.02v7.95l-0.12 7zM498.75-31.95l-10.98 22.35h-3.57l-10.98-22.35h4.38l5.87 12.22 2.35 5.3h0.33l2.35-5.3 5.85-12.22zM488.02-13.48v13.48h-4.07v-13.48zM512.67 0.63v0c-3.5 0-6.153-0.947-7.96-2.84-1.807-1.893-2.71-4.617-2.71-8.17v0-3.72c0-3.533 0.907-6.243 2.72-8.13 1.82-1.88 4.47-2.82 7.95-2.82v0c3.5 0 6.157 0.94 7.97 2.82 1.807 1.887 2.71 4.597 2.71 8.13v0 3.72c0 3.553-0.903 6.277-2.71 8.17-1.813 1.893-4.47 2.84-7.97 2.84zM512.67-2.68v0c2.167 0 3.813-0.64 4.94-1.92 1.127-1.287 1.69-3.137 1.69-5.55v0-4.18c0-2.4-0.563-4.237-1.69-5.51-1.127-1.273-2.773-1.91-4.94-1.91v0c-2.147 0-3.787 0.637-4.92 1.91-1.133 1.273-1.7 3.11-1.7 5.51v0 4.18c0 2.413 0.567 4.263 1.7 5.55 1.133 1.28 2.773 1.92 4.92 1.92zM528.67-8.78v-15.62h4.03v15.18c0 1.28 0.18 2.4 0.54 3.36 0.353 0.96 0.94 1.7 1.76 2.22 0.813 0.527 1.913 0.79 3.3 0.79v0c1.3 0 2.417-0.237 3.35-0.71 0.933-0.48 1.697-1.137 2.29-1.97 0.587-0.833 0.99-1.773 1.21-2.82v0l0.73 2.87h-0.88c-0.247 1.1-0.703 2.107-1.37 3.02-0.667 0.907-1.563 1.63-2.69 2.17-1.127 0.547-2.517 0.82-4.17 0.82v0c-1.913 0-3.467-0.363-4.66-1.09-1.193-0.727-2.063-1.787-2.61-3.18-0.553-1.393-0.83-3.073-0.83-5.04zM544.97-6.1v-18.3h4.05v24.4h-4.05l0.18-5.85zM559.47-14.93v0l-0.92-3.12 1-0.05c0.533-2.067 1.45-3.697 2.75-4.89 1.3-1.193 3.023-1.79 5.17-1.79v0c0.533 0 1.013 0.043 1.44 0.13 0.427 0.08 0.807 0.18 1.14 0.3v0l0.25 3.92c-0.42-0.133-0.883-0.24-1.39-0.32-0.507-0.087-1.07-0.13-1.69-0.13v0c-1.833 0-3.427 0.51-4.78 1.53-1.36 1.02-2.35 2.493-2.97 4.42zM559.67-16.9v16.9h-4.05v-24.4h3.95l-0.2 7.2zM608.87-31.95l-9.7 31.95h-6.62l-9.73-31.95h4.35l8.38 28.8h0.6l8.4-28.8zM623.1 0.63v0c-3.5 0-6.153-0.947-7.96-2.84-1.813-1.893-2.72-4.617-2.72-8.17v0-3.72c0-3.533 0.91-6.243 2.73-8.13 1.813-1.88 4.463-2.82 7.95-2.82v0c3.5 0 6.153 0.94 7.96 2.82 1.807 1.887 2.71 4.597 2.71 8.13v0 3.72c0 3.553-0.903 6.277-2.71 8.17-1.807 1.893-4.46 2.84-7.96 2.84zM623.1-2.68v0c2.167 0 3.813-0.64 4.94-1.92 1.12-1.287 1.68-3.137 1.68-5.55v0-4.18c0-2.4-0.56-4.237-1.68-5.51-1.127-1.273-2.773-1.91-4.94-1.91v0c-2.153 0-3.797 0.637-4.93 1.91-1.133 1.273-1.7 3.11-1.7 5.51v0 4.18c0 2.413 0.567 4.263 1.7 5.55 1.133 1.28 2.777 1.92 4.93 1.92zM643.52-24.4v24.4h-4.05v-24.4zM641.5-28.4v0c-0.833 0-1.453-0.22-1.86-0.66-0.413-0.447-0.62-1.053-0.62-1.82v0-0.12c0-0.787 0.207-1.397 0.62-1.83 0.407-0.433 1.027-0.65 1.86-0.65v0c0.833 0 1.457 0.217 1.87 0.65 0.42 0.433 0.63 1.043 0.63 1.83v0 0.12c0 0.787-0.21 1.397-0.63 1.83-0.413 0.433-1.037 0.65-1.87 0.65zM659.63 0.55v0c-3.5 0-6.107-0.947-7.82-2.84-1.707-1.893-2.56-4.573-2.56-8.04v0-3.8c0-3.48 0.857-6.157 2.57-8.03 1.72-1.88 4.323-2.82 7.81-2.82v0c1.027 0 1.967 0.097 2.82 0.29 0.847 0.193 1.61 0.443 2.29 0.75 0.673 0.307 1.243 0.627 1.71 0.96v0l0.35 3.53c-0.78-0.6-1.71-1.11-2.79-1.53-1.073-0.413-2.337-0.62-3.79-0.62v0c-2.333 0-4.07 0.647-5.21 1.94-1.14 1.287-1.71 3.163-1.71 5.63v0 3.6c0 2.42 0.57 4.28 1.71 5.58 1.14 1.3 2.877 1.95 5.21 1.95v0c1.5 0 2.797-0.21 3.89-0.63 1.093-0.413 2.063-0.92 2.91-1.52v0l-0.37 3.57c-0.733 0.5-1.693 0.963-2.88 1.39-1.18 0.427-2.56 0.64-4.14 0.64zM682.17 0.55v0c-3.713 0-6.513-0.91-8.4-2.73-1.88-1.813-2.82-4.413-2.82-7.8v0-4.35c0-3.433 0.877-6.077 2.63-7.93 1.747-1.86 4.303-2.79 7.67-2.79v0c2.267 0 4.157 0.42 5.67 1.26 1.52 0.84 2.663 2.037 3.43 3.59 0.767 1.547 1.15 3.397 1.15 5.55v0 0.9c0 0.533-0.02 1.067-0.06 1.6-0.04 0.533-0.097 1.057-0.17 1.57v0h-3.72c0.033-0.8 0.053-1.557 0.06-2.27 0.013-0.72 0.02-1.38 0.02-1.98v0c0-1.48-0.24-2.733-0.72-3.76-0.473-1.027-1.18-1.81-2.12-2.35-0.94-0.54-2.12-0.81-3.54-0.81v0c-2.1 0-3.677 0.607-4.73 1.82-1.047 1.22-1.57 2.963-1.57 5.23v0 2.32l0.03 0.5v2.33c0 1.013 0.147 1.93 0.44 2.75 0.307 0.813 0.78 1.517 1.42 2.11 0.64 0.593 1.457 1.043 2.45 1.35 0.987 0.307 2.167 0.46 3.54 0.46v0c1.58 0 3.053-0.207 4.42-0.62 1.367-0.42 2.65-0.987 3.85-1.7v0l-0.37 3.5c-1.087 0.68-2.347 1.227-3.78 1.64-1.433 0.407-3.027 0.61-4.78 0.61zM690.42-13.63v3.05h-17.34v-3.05z" fill="#ffffff" fill-rule="nonzero" stroke="none" stroke-width="1" stroke-linecap="butt" stroke-linejoin="miter" stroke-miterlimit="10" stroke-dasharray="" stroke-dashoffset="0" font-family="none" font-weight="none" font-size="none" text-anchor="none" style="mix-blend-mode: normal" data-fill-palette-color="secondary" id="text-1"></path></g></g><g transform="matrix(1,0,0,1,29.33176499999999,40.781207580150436)"><svg viewBox="0 0 316.416 162.79941443969915" height="162.79941443969915" width="316.416"><g><svg viewBox="0 0 316.416 162.79941443969915" height="162.79941443969915" width="316.416"><g><svg viewBox="0 0 316.416 162.79941443969915" height="162.79941443969915" width="316.416"><g transform="matrix(1,0,0,1,0,100.61656931232349)"><svg viewBox="0 0 316.416 62.18284512737565" height="62.18284512737565" width="316.416"><g id="textblocktransform"><svg viewBox="0 0 316.416 62.18284512737565" height="62.18284512737565" width="316.416" id="textblock"><g><svg viewBox="0 0 316.416 62.18284512737565" height="62.18284512737565" width="316.416"><g transform="matrix(1,0,0,1,0,0)"><svg width="316.416" viewBox="1.5 -37 247.28 48.6" height="62.18284512737565" data-palette-color="#ffffff"><path d="M13.2 0.6L13.2 0.6Q9.55 0.6 6.55-0.38 3.55-1.35 1.5-2.95L1.5-2.95 3.9-6.95Q5.7-5.45 7.95-4.5 10.2-3.55 13.2-3.55L13.2-3.55Q16.8-3.55 18.9-5.05 21-6.55 21-9.1L21-9.1Q21-10.55 20.4-11.68 19.8-12.8 18.07-13.88 16.35-14.95 13-16.2L13-16.2Q9.4-17.6 7.25-19.03 5.1-20.45 4.17-22.28 3.25-24.1 3.25-26.6L3.25-26.6Q3.25-29.1 4.63-31.13 6-33.15 8.68-34.38 11.35-35.6 15.15-35.6L15.15-35.6Q18.25-35.6 20.73-34.98 23.2-34.35 25.55-33.2L25.55-33.2 23.8-29.15Q22.1-30.15 19.83-30.83 17.55-31.5 15.05-31.5L15.05-31.5Q11.75-31.5 9.85-30.2 7.95-28.9 7.95-26.85L7.95-26.85Q7.95-25.55 8.5-24.55 9.05-23.55 10.68-22.6 12.3-21.65 15.55-20.45L15.55-20.45Q19.45-19 21.73-17.4 24-15.8 24.95-13.93 25.9-12.05 25.9-9.65L25.9-9.65Q25.9-6.4 24.28-4.1 22.65-1.8 19.78-0.6 16.9 0.6 13.2 0.6ZM37.35 11L32.85 11 32.85-19.35Q32.85-21.05 32.02-21.78 31.2-22.5 29.9-22.5L29.9-22.5 30.85-26Q35.45-26 36.6-22.35L36.6-22.35Q37.1-23.1 38.22-24.1 39.35-25.1 41.02-25.85 42.7-26.6 44.85-26.6L44.85-26.6Q47.85-26.6 50.47-25.03 53.1-23.45 54.7-20.48 56.3-17.5 56.3-13.25L56.3-13.25Q56.3-9.1 54.7-5.98 53.1-2.85 50.52-1.13 47.95 0.6 44.95 0.6L44.95 0.6Q42.65 0.6 40.65-0.33 38.65-1.25 37.35-2.45L37.35-2.45 37.35 11ZM44.05-3.4L44.05-3.4Q47.45-3.4 49.57-6.08 51.7-8.75 51.7-13.1L51.7-13.1Q51.7-16.1 50.62-18.25 49.55-20.4 47.77-21.55 46-22.7 43.85-22.7L43.85-22.7Q41.7-22.7 39.97-21.63 38.25-20.55 37.35-19.3L37.35-19.3 37.35-6.5Q38.65-5.15 40.35-4.28 42.05-3.4 44.05-3.4ZM72.95 0.6L72.95 0.6Q67.34 0.6 64.07-2.98 60.8-6.55 60.8-13L60.8-13Q60.8-16.9 62.27-19.98 63.75-23.05 66.39-24.83 69.05-26.6 72.55-26.6L72.55-26.6Q76.3-26.6 78.77-24.98 81.25-23.35 82.5-20.6 83.75-17.85 83.75-14.55L83.75-14.55Q83.75-12.8 83.59-11.15L83.59-11.15 65.39-11.15Q65.84-7.5 67.95-5.45 70.05-3.4 73.5-3.4L73.5-3.4Q75.75-3.4 77.55-3.88 79.34-4.35 81-5.1L81-5.1 82.05-1.25Q80.25-0.45 78 0.08 75.75 0.6 72.95 0.6ZM65.34-14.8L65.34-14.8 79.59-14.8Q79.59-18.6 77.7-20.65 75.8-22.7 72.45-22.7L72.45-22.7Q69.55-22.7 67.64-20.68 65.75-18.65 65.34-14.8ZM99.69 0.6L99.69 0.6Q96.44 0.6 93.79-1.05 91.14-2.7 89.57-5.73 87.99-8.75 87.99-12.85L87.99-12.85Q87.99-16.75 89.57-19.85 91.14-22.95 93.92-24.78 96.69-26.6 100.29-26.6L100.29-26.6Q102.54-26.6 104.37-25.83 106.19-25.05 107.54-23.9L107.54-23.9 107.54-26 111.64-26 111.64-6.3Q111.64-4.4 112.57-3.83 113.49-3.25 114.59-3.25L114.59-3.25 113.64 0.25Q108.84 0.25 107.84-3.65L107.84-3.65Q106.69-2.05 104.72-0.73 102.74 0.6 99.69 0.6ZM100.69-3.4L100.69-3.4Q102.59-3.4 104.29-4.33 105.99-5.25 107.14-6.65L107.14-6.65 107.14-20.6Q105.79-21.55 104.17-22.13 102.54-22.7 100.74-22.7L100.74-22.7Q98.34-22.7 96.52-21.48 94.69-20.25 93.64-18.07 92.59-15.9 92.59-13L92.59-13Q92.59-10.2 93.64-8.03 94.69-5.85 96.54-4.63 98.39-3.4 100.69-3.4ZM141.64-2.5L138.54 0.5 125.09-13.35 125.09 0 120.59 0 120.59-37 125.09-37 125.09-15.85 136.84-26.5 139.44-23.65 129.39-14.75 141.64-2.5ZM167.64 0L146.64 0 146.64-35 167.64-35 167.64-30.9 151.39-30.9 151.39-20.25 165.39-20.25 165.39-16.25 151.39-16.25 151.39-4.1 167.64-4.1 167.64 0ZM182.84 0.6L182.84 0.6Q179.59 0.6 176.94-1.05 174.29-2.7 172.71-5.73 171.14-8.75 171.14-12.85L171.14-12.85Q171.14-16.75 172.71-19.85 174.29-22.95 177.06-24.78 179.84-26.6 183.44-26.6L183.44-26.6Q185.69-26.6 187.51-25.83 189.34-25.05 190.69-23.9L190.69-23.9 190.69-26 194.79-26 194.79-6.3Q194.79-4.4 195.71-3.83 196.64-3.25 197.74-3.25L197.74-3.25 196.79 0.25Q191.99 0.25 190.99-3.65L190.99-3.65Q189.84-2.05 187.86-0.73 185.89 0.6 182.84 0.6ZM183.84-3.4L183.84-3.4Q185.74-3.4 187.44-4.33 189.14-5.25 190.29-6.65L190.29-6.65 190.29-20.6Q188.94-21.55 187.31-22.13 185.69-22.7 183.89-22.7L183.89-22.7Q181.49-22.7 179.66-21.48 177.84-20.25 176.79-18.07 175.74-15.9 175.74-13L175.74-13Q175.74-10.2 176.79-8.03 177.84-5.85 179.69-4.63 181.54-3.4 183.84-3.4ZM210.73 0.6L210.73 0.6Q207.78 0.6 205.41-0.15 203.03-0.9 201.48-2.1L201.48-2.1 203.38-5.85Q204.68-4.75 206.66-4.03 208.63-3.3 210.88-3.3L210.88-3.3Q213.68-3.3 215.11-4.23 216.53-5.15 216.53-6.6L216.53-6.6Q216.53-7.65 216.01-8.45 215.48-9.25 214.08-10.03 212.68-10.8 210.03-11.7L210.03-11.7Q206.38-12.95 204.56-14.68 202.73-16.4 202.73-19.45L202.73-19.45Q202.73-22.45 205.36-24.53 207.98-26.6 212.63-26.6L212.63-26.6Q215.13-26.6 217.08-26.08 219.03-25.55 220.58-24.75L220.58-24.75 219.33-21.05Q217.98-21.85 216.26-22.35 214.53-22.85 212.43-22.85L212.43-22.85Q209.83-22.85 208.48-21.8 207.13-20.75 207.13-19.5L207.13-19.5Q207.13-18.3 208.18-17.45 209.23-16.6 212.28-15.6L212.28-15.6Q217.23-13.95 219.18-11.95 221.13-9.95 221.13-6.95L221.13-6.95Q221.13-3.45 218.31-1.43 215.48 0.6 210.73 0.6ZM227.78 11.6L227.78 11.6Q226.28 11.6 225.16 11.3 224.03 11 223.38 10.6L223.38 10.6 224.38 6.85Q224.98 7.2 225.88 7.45 226.78 7.7 227.88 7.7L227.88 7.7Q229.98 7.7 231.63 6.35 233.28 5 234.78 1.05L234.78 1.05 235.93-1.95 233.53-1.95 223.38-24.8 227.38-26.6 237.08-4.95 244.63-26.4 248.78-24.8 239.23 1.3Q237.78 5.3 236.08 7.55 234.38 9.8 232.33 10.7 230.28 11.6 227.78 11.6Z" opacity="1" transform="matrix(1,0,0,1,0,0)" fill="#ffffff" class="wordmark-text-0" data-fill-palette-color="primary" id="text-0"></path></svg></g></svg></g></svg></g></svg></g><g transform="matrix(1,0,0,1,115.23965401698342,0)"><svg viewBox="0 0 85.93669196603315 85.93669196603315" height="85.93669196603315" width="85.93669196603315"><g><svg xmlns="http://www.w3.org/2000/svg" xmlns:xlink="http://www.w3.org/1999/xlink" version="1.1" x="0" y="0" viewBox="44 44 112 112" style="enable-background:new 0 0 200 200;" xml:space="preserve" height="85.93669196603315" width="85.93669196603315" class="icon-icon-0" data-fill-palette-color="accent" id="icon-0"><g fill="#ffffff" data-fill-palette-color="accent"><polygon points="87.333,112.666 53,112.666 53,53 112.666,53 112.666,87.333 121.666,87.333 121.666,44 44,44 44,121.666    87.333,121.666  " fill="#ffffff" data-fill-palette-color="accent"></polygon><polygon points="130.666,78.333 130.666,87.333 147,87.333 147,147 87.333,147 87.333,130.666 78.333,130.666 78.333,156 156,156    156,78.333  " fill="#ffffff" data-fill-palette-color="accent"></polygon><polygon points="130.865,116.333 139.531,116.333 139.531,107.333 130.865,107.333 130.865,97.333 121.865,97.333 121.865,107.333    121.865,116.333 121.865,137 130.865,137  " fill="#ffffff" data-fill-palette-color="accent"></polygon><path d="M97.299 130.863L104.729 135.943 107.269 132.228A53.35 53.35 0 0 0 116.616 101.997V97.332H99.041L89.103 62.555H76.589L65.373 100.772 74.009 103.306 77.164 92.555H88.315L92.252 106.332H107.406A44.36 44.36 0 0 1 99.839 127.147zM79.805 83.556L82.813 73.306 85.742 83.556z" fill="#ffffff" data-fill-palette-color="accent"></path></g></svg></g></svg></g><g></g></svg></g></svg></g></svg></g></svg></g><defs></defs></svg><rect width="375.07953" height="244.36182960000002" fill="none" stroke="none" visibility="hidden"></rect></g></svg></g></svg>